<svg xmlns="http://www.w3.org/2000/svg" width="20" height="20" viewBox="0 0 20 20">
    <g fill="none" fill-rule="evenodd">
        <g>
            <g>
                <g>
                    <g>
                        <g>
                            <path d="M0 0H20V20H0z" transform="translate(-16 -324) translate(0 106) translate(16 218)"/>
                            <path fill="#6F6F6F" d="M10.969 12.566c-.773 0-1.4.628-1.4 1.4 0 .772.627 1.402 1.4 1.402.772 0 1.4-.63 1.4-1.402 0-.772-.628-1.4-1.4-1.4zm0 3.767c-1.305 0-2.366-1.062-2.366-2.367s1.06-2.366 2.366-2.366c1.305 0 2.365 1.06 2.365 2.366 0 1.305-1.06 2.367-2.365 2.367zm3.765-7.825c-.772 0-1.4.628-1.4 1.4 0 .772.628 1.4 1.4 1.4.773 0 1.402-.628 1.402-1.4 0-.772-.63-1.4-1.402-1.4zm0 3.765c-1.303 0-2.365-1.061-2.365-2.365 0-1.305 1.062-2.366 2.365-2.366 1.306 0 2.367 1.06 2.367 2.366 0 1.304-1.061 2.365-2.367 2.365zM6.597 7.771c.877 0 1.783.934 1.805 1.864.02.92-.784 1.41-1.56 1.886-.763.467-1.629.994-1.99 1.982-.447 1.208.09 2.39.203 2.614.027.052.664 1.294 2.493 1.973 2.478.919 4.863.088 5.535-.188 2.105-.864 3.322-2.39 3.861-3.222 2.016-3.114 1.215-6.39 1.035-7.015-.185-.645-1.286-3.934-4.739-5.475-2.98-1.331-5.797-.504-6.87-.087-.793.308-2.653 1.03-3.82 2.944-.708 1.12-1.667 3.11-.619 4.593.377.534 1.236.987 1.906.815.563-.144.893-.741 1.214-1.32.35-.631.746-1.348 1.525-1.364h.02zm3.38 11.711c-.858 0-1.8-.13-2.765-.488-2.144-.795-2.937-2.279-3.021-2.445-.143-.288-.829-1.8-.247-3.381.48-1.301 1.542-1.95 2.394-2.471.687-.42 1.107-.694 1.099-1.041-.01-.43-.514-.92-.838-.92h-.005c-.221.005-.463.443-.699.867-.38.686-.852 1.542-1.818 1.788-1.11.285-2.364-.385-2.934-1.193-1.018-1.44-.822-3.428.549-5.6 1.372-2.248 3.52-3.08 4.33-3.394 1.185-.461 4.302-1.374 7.612.104 3.745 1.673 4.982 5.084 5.272 6.089.202.695 1.092 4.34-1.152 7.808-.6.927-1.958 2.626-4.304 3.589-.624.257-1.907.688-3.474.688zm.992-16.2c-.773 0-1.4.628-1.4 1.4 0 .774.627 1.402 1.4 1.402.772 0 1.4-.628 1.4-1.401s-.628-1.4-1.4-1.4zm0 3.767c-1.305 0-2.366-1.061-2.366-2.366 0-1.306 1.06-2.366 2.366-2.366 1.305 0 2.365 1.06 2.365 2.366 0 1.305-1.06 2.366-2.365 2.366z" transform="translate(-16 -324) translate(0 106) translate(16 218)"/>
                        </g>
                    </g>
                </g>
            </g>
        </g>
    </g>
</svg>
