<svg xmlns="http://www.w3.org/2000/svg" width="32" height="32" viewBox="0 0 32 32">
    <g fill="none" fill-rule="evenodd">
        <g>
            <g>
                <g transform="translate(-320 -114) translate(0 106) translate(320 8)">
                    <circle cx="16" cy="16" r="16" fill="#FFF"/>
                    <g>
                        <path d="M0 0H20V20H0z" transform="translate(6 6)"/>
                        <path stroke="#6F6F6F" stroke-linecap="round" stroke-width="1.4" d="M7.467 9.904c0 1.7-1.378 3.078-3.078 3.078-1.701 0-3.08-1.378-3.08-3.078s1.379-3.078 3.08-3.078c1.7 0 3.078 1.378 3.078 3.078zM17.664 3.554c0 1.7-1.378 3.079-3.078 3.079-1.701 0-3.08-1.379-3.08-3.079 0-1.7 1.379-3.078 3.08-3.078 1.7 0 3.078 1.378 3.078 3.078zM17.664 16.446c0 1.7-1.378 3.078-3.078 3.078-1.701 0-3.08-1.378-3.08-3.078s1.379-3.078 3.08-3.078c1.7 0 3.078 1.378 3.078 3.078z" transform="translate(6 6)"/>
                        <path stroke="#6F6F6F" stroke-width="1.4" d="M11.699 4.709L6.807 8.002M6.807 11.806L11.7 15.291" transform="translate(6 6)"/>
                    </g>
                </g>
            </g>
        </g>
    </g>
</svg>
