<svg xmlns="http://www.w3.org/2000/svg" width="20" height="20" viewBox="0 0 20 20">
    <g fill="none" fill-rule="evenodd">
        <g>
            <g>
                <g>
                    <g>
                        <g>
                            <path d="M0 0H20V20H0z" transform="translate(-201 -324) translate(0 106) translate(16 218) translate(185)"/>
                            <g fill="#6F6F6F">
                                <path d="M7.714 6.903c-.036 0-.067.013-.086.024-.032.017-.086.061-.086.15v6.372c0 .09.055.133.087.15.033.02.099.045.173 0l5.364-3.217c.073-.044.083-.113.083-.149 0-.036-.011-.105-.085-.147L7.801 6.928c-.032-.019-.06-.025-.087-.025zm0 7.659c-.187 0-.375-.048-.546-.145-.354-.2-.564-.561-.564-.968V7.077c0-.405.209-.765.559-.965.35-.201.766-.199 1.114.007l5.364 3.158c.34.201.544.557.546.952.002.397-.199.754-.539.957l-5.364 3.216c-.177.107-.374.16-.57.16zM9.921 1.25c-4.867 0-8.827 3.96-8.827 8.826v.159c0 4.867 3.96 8.827 8.826 8.827h.16c4.867 0 8.827-3.96 8.827-8.827v-.16c0-4.865-3.96-8.825-8.828-8.825H9.92zM10.079 20H9.92C4.538 20 .158 15.62.158 10.236v-.16C.157 4.693 4.537.314 9.92.314h.158c5.384 0 9.765 4.379 9.765 9.764v.159c0 5.385-4.381 9.765-9.765 9.765z" transform="translate(-201 -324) translate(0 106) translate(16 218) translate(185)"/>
                            </g>
                        </g>
                    </g>
                </g>
            </g>
        </g>
    </g>
</svg>
