<svg xmlns="http://www.w3.org/2000/svg" width="20" height="16" viewBox="0 0 20 16">
    <g fill="none" fill-rule="evenodd">
        <g>
            <g>
                <g>
                    <g>
                        <g>
                            <path d="M0 0H20V20H0z" transform="translate(-291 -326) translate(0 106) translate(16 218) translate(275)"/>
                            <path fill="#6F6F6F" d="M16.278 3.164c.075-.086.178-.13.31-.13.126 0 .229.044.304.13.076.086.115.201.115.342 0 .14-.039.252-.115.338-.075.086-.178.129-.304.129-.132 0-.235-.043-.31-.13-.075-.085-.111-.198-.111-.337 0-.14.036-.256.111-.342zm-.51.714c.048.112.111.207.193.287.08.079.173.14.28.185.108.045.22.069.338.069.12 0 .235-.024.343-.069.109-.045.201-.106.284-.185.082-.08.147-.175.196-.287.049-.114.072-.237.072-.372 0-.137-.023-.265-.072-.375-.049-.113-.114-.21-.196-.292-.083-.083-.175-.146-.284-.191-.108-.045-.223-.068-.343-.068-.117 0-.23.023-.337.068-.108.045-.201.108-.281.19-.082.083-.145.18-.193.293-.047.11-.071.238-.071.375 0 .135.024.258.071.372zm.348 5.113c-.078.313-.18.563-.307.754-.128.189-.276.324-.44.404-.168.08-.34.121-.522.121-.181 0-.355-.041-.521-.121-.167-.08-.314-.215-.442-.404-.127-.191-.227-.441-.303-.754-.074-.312-.112-.7-.112-1.166 0-.465.038-.854.112-1.167.076-.312.176-.564.303-.755.128-.19.275-.325.442-.407.166-.08.34-.12.52-.12.182 0 .355.04.522.12.165.082.313.217.441.407.127.19.23.443.307.755.075.313.112.702.112 1.167 0 .465-.037.854-.112 1.166zm.807-2.57c-.115-.398-.275-.728-.476-.987-.204-.26-.441-.453-.715-.578-.275-.127-.57-.19-.885-.19-.316 0-.61.063-.885.19-.274.125-.511.318-.713.578-.2.259-.357.589-.473.986-.114.396-.172.866-.172 1.405s.058 1.006.172 1.404c.116.395.273.724.473.984.202.258.44.45.713.578.275.125.569.19.885.19.315 0 .61-.065.885-.19.274-.127.511-.32.715-.578.201-.26.361-.59.476-.984.116-.398.175-.865.175-1.404 0-.539-.059-1.009-.175-1.405zm-7.601 3.767c-.154-.063-.284-.15-.39-.263-.105-.112-.186-.246-.241-.404-.054-.158-.083-.332-.083-.52 0-.167.031-.327.093-.48.058-.15.145-.283.257-.396.111-.115.246-.205.405-.272.158-.068.335-.1.534-.1.189 0 .361.027.516.085.155.057.288.142.398.248.11.11.196.244.258.4.062.157.093.333.093.532 0 .18-.033.348-.095.503-.064.155-.153.288-.266.4-.115.112-.254.2-.413.265-.161.064-.341.097-.539.097s-.375-.032-.527-.095zm1.965-5.454h-.749c-.101 0-.19.02-.267.059-.078.038-.14.086-.182.145l-1.545 2.07c-.257.347-.447.673-.566.978-.119.307-.177.597-.177.873 0 .32.047.614.145.875.098.262.236.486.416.671.18.185.395.329.65.429.254.101.539.15.855.15.317 0 .606-.051.869-.156.26-.105.485-.248.673-.432.188-.18.334-.397.438-.643.104-.25.155-.517.155-.8 0-.298-.05-.563-.148-.793-.097-.23-.23-.421-.397-.576-.169-.155-.361-.273-.584-.353-.22-.08-.454-.12-.697-.12-.195 0-.378.024-.544.073-.169.049-.32.119-.459.207.044-.058.088-.116.136-.175.047-.058.094-.12.144-.183l1.834-2.3zM3.346 6.495c.115.02.203.011.265-.025.06-.039.112-.111.152-.22.029-.124.075-.239.141-.345.067-.106.15-.199.247-.275.097-.079.208-.139.335-.181.126-.044.263-.064.412-.064.151 0 .289.02.416.063.13.04.24.103.332.188.093.085.166.192.217.317.051.126.078.273.078.443 0 .155-.025.295-.075.422-.05.126-.132.235-.243.327-.112.093-.259.164-.441.215-.183.051-.405.079-.67.083v.61c.321 0 .582.027.784.083.2.054.357.13.47.224.115.096.19.213.23.348.042.135.06.282.06.443 0 .13-.024.26-.077.393-.05.131-.128.25-.232.359-.104.107-.231.193-.386.262-.155.066-.337.101-.544.101-.215 0-.394-.035-.535-.1-.141-.066-.261-.147-.356-.243-.094-.095-.17-.198-.227-.305-.053-.108-.105-.205-.147-.29-.04-.084-.105-.135-.194-.15-.089-.018-.18-.007-.275.033l-.366.155c.074.238.165.457.274.655.107.2.242.372.407.513.163.142.361.254.593.332.232.08.51.118.835.118.285 0 .552-.041.803-.126.252-.085.47-.207.66-.367.19-.16.34-.353.45-.583.108-.233.162-.494.162-.783 0-.376-.1-.687-.297-.932-.197-.245-.493-.423-.887-.532.161-.05.306-.117.435-.196.129-.077.239-.175.33-.29.09-.115.16-.247.207-.4.05-.151.074-.327.074-.525 0-.236-.045-.451-.134-.646-.088-.195-.212-.363-.372-.501-.159-.14-.35-.247-.574-.323-.225-.076-.47-.115-.736-.115s-.516.038-.748.113c-.23.075-.435.185-.612.333-.179.148-.326.33-.444.55-.117.218-.199.47-.241.758l.444.076zm7.692 9.004l-1.957 1.125v-2.246l1.957 1.12zm-1.86 2.132l2.684-1.54c.211-.122.341-.348.341-.592 0-.241-.13-.468-.341-.59l-2.684-1.54c-.21-.121-.472-.121-.68.001-.21.121-.34.346-.34.59v3.081c0 .242.13.468.34.59.105.06.224.09.341.09.117 0 .234-.03.34-.09zm-1.792-2.096c.026-.254-.16-.479-.413-.504-3.224-.325-6.051-1.71-6.051-2.966 0-.385.237-.775.704-1.159.197-.162.225-.452.065-.648-.163-.195-.453-.224-.65-.064C.36 10.753 0 11.4 0 12.065c0 2.073 3.545 3.549 6.88 3.884l.047.001c.234 0 .434-.176.458-.415zm6.203.403c-.23 0-.43-.173-.457-.407-.031-.253.149-.482.402-.513 2.953-.358 5.544-1.737 5.544-2.952 0-.4-.251-.803-.746-1.2-.2-.16-.258-.47-.099-.668.161-.202.425-.253.623-.094.767.614 1.145 1.277 1.145 1.962 0 2.012-3.275 3.495-6.357 3.868-.02.002-.037.004-.055.004z" transform="translate(-291 -326) translate(0 106) translate(16 218) translate(275)"/>
                        </g>
                    </g>
                </g>
            </g>
        </g>
    </g>
</svg>
