<svg xmlns="http://www.w3.org/2000/svg" width="20" height="20" viewBox="0 0 20 20">
    <g fill="none" fill-rule="evenodd">
        <g>
            <g>
                <g>
                    <g>
                        <g>
                            <path d="M0 0H20V20H0z" transform="translate(-110 -324) translate(0 106) translate(16 218) translate(94)"/>
                            <path fill="#6F6F6F" d="M4.893 10.241c.2-.163.232-.458.07-.659-.478-.59-.69-1.336-.6-2.098.09-.768.477-1.462 1.087-1.955.614-.497 1.38-.721 2.165-.646.78.08 1.48.458 1.971 1.066.163.201.458.231.66.071.201-.164.233-.457.069-.659-.649-.805-1.574-1.305-2.605-1.411-1.025-.103-2.04.196-2.849.849-.802.648-1.31 1.562-1.428 2.573-.122 1.018.163 2.01.8 2.798.093.115.228.175.365.175.103 0 .208-.034.295-.104zm1.576 1.455l-.015.002c-.035.003-.083.02-.106.08L4.835 15.53c-.021.053-.005.095.013.12.013.023.047.058.107.058h10.074l.123-.168-2.7-8.78c-.02-.06-.086-.115-.126-.091-.06 0-.101.029-.121.086l-2.402 6.796c-.137.386-.472.655-.877.704-.402.045-.797-.133-1.021-.473l-1.33-2.027c-.031-.047-.072-.06-.106-.06zm8.56 4.95H4.955c-.355 0-.686-.176-.885-.47-.199-.293-.238-.666-.105-.996l1.513-3.752c.147-.37.487-.624.883-.663.39-.044.779.143.998.476l1.33 2.027c.036.056.084.057.123.058.037-.005.086-.024.107-.086l2.402-6.796c.154-.434.546-.712 1.005-.712.008 0 .015 0 .023.002.469.007.86.303.998.751l2.702 8.781c.1.326.041.673-.162.946-.203.277-.516.434-.858.434zM3.674 1.812c-1.095 0-1.986.892-1.986 1.988v12.587c0 1.097.89 1.988 1.986 1.988h12.588c1.096 0 1.988-.891 1.988-1.988V3.8c0-1.096-.892-1.987-1.988-1.987H3.675zm12.588 17.5H3.675C2.06 19.313.75 18 .75 16.387V3.8C.75 2.188 2.061.875 3.674.875h12.588c1.613 0 2.925 1.313 2.925 2.925v12.587c0 1.613-1.312 2.925-2.925 2.925z" transform="translate(-110 -324) translate(0 106) translate(16 218) translate(94)"/>
                        </g>
                    </g>
                </g>
            </g>
        </g>
    </g>
</svg>
