<svg xmlns="http://www.w3.org/2000/svg" width="24" height="24" viewBox="0 0 24 24">
    <g fill="none" fill-rule="evenodd">
        <g>
            <g>
                <g>
                    <g>
                        <g>
                            <path fill="#F5F5F5" d="M0 0H24V24H0z" opacity=".046" transform="translate(-280 -18) translate(0 2) translate(16 16) translate(264)"/>
                            <path fill="#6F6F70" fill-rule="nonzero" d="M9.75 19.5C4.365 19.5 0 15.135 0 9.75S4.365 0 9.75 0s9.75 4.365 9.75 9.75c.033 2.596-.984 5.095-2.82 6.93-1.835 1.836-4.334 2.853-6.93 2.82zm0-18C5.194 1.5 1.5 5.194 1.5 9.75S5.194 18 9.75 18c2.197.029 4.312-.832 5.865-2.385S18.03 11.947 18 9.75c-.008-4.553-3.697-8.242-8.25-8.25zm13.695 21.96c.16-.153.25-.364.25-.585 0-.22-.09-.432-.25-.585l-6.21-6.21s-.285.33-.615.645-.555.525-.555.525l6.21 6.21c.326.316.844.316 1.17 0z" transform="translate(-280 -18) translate(0 2) translate(16 16) translate(264)"/>
                        </g>
                    </g>
                </g>
            </g>
        </g>
    </g>
</svg>
